<svg id="svg" xmlns="http://www.w3.org/2000/svg" xmlns:xlink="http://www.w3.org/1999/xlink" width="32" height="32" viewBox="0, 0, 400,490.20771513353117"><g id="svgg"><path id="path0" d="M0.516 2.062 C 1.543 4.811,195.909 369.453,196.992 370.663 C 197.689 371.442,400.000 2.735,400.000 0.686 C 400.000 0.309,380.371 0.015,356.380 0.034 L 312.760 0.067 256.973 105.758 C 226.291 163.888,200.653 212.204,200.000 213.128 C 199.108 214.390,184.921 188.184,142.923 107.700 L 87.033 0.593 43.384 0.282 C 2.119 -0.013,-0.223 0.085,0.516 2.062 M17.804 457.567 L 17.804 490.208 200.000 490.208 L 382.196 490.208 382.196 457.567 L 382.196 424.926 200.000 424.926 L 17.804 424.926 17.804 457.567 " stroke="none" fill="#da3842" fill-rule="evenodd"></path></g></svg>